<svg width="401" height="115" viewBox="0 0 401 115" fill="none" xmlns="http://www.w3.org/2000/svg">
<rect width="401" height="115" fill="#700000"/>
<path d="M0.5 16.5C0.5 7.66344 7.66344 0.5 16.5 0.5H384.5C393.337 0.5 400.5 7.66344 400.5 16.5V98.5C400.5 107.337 393.337 114.5 384.5 114.5H16.5C7.66345 114.5 0.5 107.337 0.5 98.5V16.5Z" fill="white"/>
<path d="M16.5 0.5V1H384.5V0.5V0H16.5V0.5ZM400.5 16.5H400V98.5H400.5H401V16.5H400.5ZM384.5 114.5V114H16.5V114.5V115H384.5V114.5ZM0.5 98.5H1V16.5H0.5H0V98.5H0.5ZM16.5 114.5V114C7.93959 114 1 107.06 1 98.5H0.5H0C0 107.613 7.38731 115 16.5 115V114.5ZM400.5 98.5H400C400 107.06 393.06 114 384.5 114V114.5V115C393.613 115 401 107.613 401 98.5H400.5ZM384.5 0.5V1C393.06 1 400 7.93959 400 16.5H400.5H401C401 7.3873 393.613 0 384.5 0V0.5ZM16.5 0.5V0C7.3873 0 0 7.3873 0 16.5H0.5H1C1 7.93959 7.93959 1 16.5 1V0.5Z" fill="#D9D9D9"/>
<path d="M20.0227 33.5L16.8409 21.8636H18.2727L20.7045 31.3409H20.8182L23.2955 21.8636H24.8864L27.3636 31.3409H27.4773L29.9091 21.8636H31.3409L28.1591 33.5H26.7045L24.1364 24.2273H24.0455L21.4773 33.5H20.0227ZM34.2557 28.25V33.5H32.9148V21.8636H34.2557V26.1364H34.3693C34.5739 25.6856 34.8807 25.3277 35.2898 25.0625C35.7027 24.7936 36.2519 24.6591 36.9375 24.6591C37.5322 24.6591 38.053 24.7784 38.5 25.017C38.947 25.2519 39.2936 25.6136 39.5398 26.1023C39.7898 26.5871 39.9148 27.2045 39.9148 27.9545V33.5H38.5739V28.0455C38.5739 27.3523 38.3939 26.8163 38.0341 26.4375C37.678 26.0549 37.1837 25.8636 36.5511 25.8636C36.1117 25.8636 35.7178 25.9564 35.3693 26.142C35.0246 26.3277 34.7519 26.5985 34.5511 26.9545C34.3542 27.3106 34.2557 27.7424 34.2557 28.25ZM44.9361 33.7045C44.383 33.7045 43.8812 33.6004 43.4304 33.392C42.9796 33.1799 42.6217 32.875 42.3565 32.4773C42.0914 32.0758 41.9588 31.5909 41.9588 31.0227C41.9588 30.5227 42.0573 30.1174 42.2543 29.8068C42.4512 29.4924 42.7145 29.2462 43.044 29.0682C43.3736 28.8902 43.7372 28.7576 44.1349 28.6705C44.5365 28.5795 44.9399 28.5076 45.3452 28.4545C45.8755 28.3864 46.3054 28.3352 46.6349 28.3011C46.9683 28.2633 47.2107 28.2008 47.3622 28.1136C47.5175 28.0265 47.5952 27.875 47.5952 27.6591V27.6136C47.5952 27.053 47.4418 26.6174 47.1349 26.3068C46.8319 25.9962 46.3717 25.8409 45.7543 25.8409C45.1141 25.8409 44.6122 25.9811 44.2486 26.2614C43.8849 26.5417 43.6293 26.8409 43.4815 27.1591L42.2088 26.7045C42.4361 26.1742 42.7391 25.7614 43.1179 25.4659C43.5005 25.1667 43.9171 24.9583 44.3679 24.8409C44.8224 24.7197 45.2694 24.6591 45.7088 24.6591C45.9891 24.6591 46.3111 24.6932 46.6747 24.7614C47.0421 24.8258 47.3963 24.9602 47.7372 25.1648C48.0819 25.3693 48.3679 25.678 48.5952 26.0909C48.8224 26.5038 48.9361 27.0568 48.9361 27.75V33.5H47.5952V32.3182H47.527C47.4361 32.5076 47.2846 32.7102 47.0724 32.9261C46.8603 33.142 46.5781 33.3258 46.2259 33.4773C45.8736 33.6288 45.4437 33.7045 44.9361 33.7045ZM45.1406 32.5C45.6709 32.5 46.1179 32.3958 46.4815 32.1875C46.849 31.9792 47.1255 31.7102 47.3111 31.3807C47.5005 31.0511 47.5952 30.7045 47.5952 30.3409V29.1136C47.5384 29.1818 47.4134 29.2443 47.2202 29.3011C47.0308 29.3542 46.8111 29.4015 46.5611 29.4432C46.3149 29.4811 46.0743 29.5152 45.8395 29.5455C45.6084 29.572 45.4209 29.5947 45.277 29.6136C44.9285 29.6591 44.6027 29.733 44.2997 29.8352C44.0005 29.9337 43.758 30.0833 43.5724 30.2841C43.3906 30.4811 43.2997 30.75 43.2997 31.0909C43.2997 31.5568 43.4721 31.9091 43.8168 32.1477C44.1652 32.3826 44.6065 32.5 45.1406 32.5ZM55.179 24.7727V25.9091H50.6562V24.7727H55.179ZM51.9744 22.6818H53.3153V31C53.3153 31.3788 53.3703 31.6629 53.4801 31.8523C53.5938 32.0379 53.7377 32.1629 53.9119 32.2273C54.09 32.2879 54.2775 32.3182 54.4744 32.3182C54.6222 32.3182 54.7434 32.3106 54.8381 32.2955C54.9328 32.2765 55.0085 32.2614 55.0653 32.25L55.3381 33.4545C55.2472 33.4886 55.1203 33.5227 54.9574 33.5568C54.7945 33.5947 54.5881 33.6136 54.3381 33.6136C53.9593 33.6136 53.5881 33.5322 53.2244 33.3693C52.8646 33.2064 52.5653 32.9583 52.3267 32.625C52.0919 32.2917 51.9744 31.8712 51.9744 31.3636V22.6818ZM64.9915 33.6818C64.2642 33.6818 63.6222 33.4981 63.0653 33.1307C62.5085 32.7595 62.0729 32.2367 61.7585 31.5625C61.4441 30.8845 61.2869 30.0833 61.2869 29.1591C61.2869 28.2424 61.4441 27.447 61.7585 26.7727C62.0729 26.0985 62.5104 25.5777 63.071 25.2102C63.6316 24.8428 64.2794 24.6591 65.0142 24.6591C65.5824 24.6591 66.0313 24.7538 66.3608 24.9432C66.6941 25.1288 66.9479 25.3409 67.1222 25.5795C67.3002 25.8144 67.4384 26.0076 67.5369 26.1591H67.6506V21.8636H68.9915V33.5H67.696V32.1591H67.5369C67.4384 32.3182 67.2983 32.5189 67.1165 32.7614C66.9347 33 66.6752 33.214 66.3381 33.4034C66.0009 33.589 65.5521 33.6818 64.9915 33.6818ZM65.1733 32.4773C65.7112 32.4773 66.1657 32.3371 66.5369 32.0568C66.9081 31.7727 67.1903 31.3807 67.3835 30.8807C67.5767 30.3769 67.6733 29.7955 67.6733 29.1364C67.6733 28.4848 67.5786 27.9148 67.3892 27.4261C67.1998 26.9337 66.9195 26.5511 66.5483 26.2784C66.1771 26.0019 65.7188 25.8636 65.1733 25.8636C64.6051 25.8636 64.1316 26.0095 63.7528 26.3011C63.3778 26.589 63.0956 26.9811 62.9062 27.4773C62.7206 27.9697 62.6278 28.5227 62.6278 29.1364C62.6278 29.7576 62.7225 30.322 62.9119 30.8295C63.1051 31.3333 63.3892 31.7348 63.7642 32.0341C64.143 32.3295 64.6127 32.4773 65.1733 32.4773ZM75.179 33.6818C74.3911 33.6818 73.6998 33.4943 73.1051 33.1193C72.5142 32.7443 72.0521 32.2197 71.7188 31.5455C71.3892 30.8712 71.2244 30.0833 71.2244 29.1818C71.2244 28.2727 71.3892 27.4792 71.7188 26.8011C72.0521 26.1231 72.5142 25.5966 73.1051 25.2216C73.6998 24.8466 74.3911 24.6591 75.179 24.6591C75.9669 24.6591 76.6563 24.8466 77.2472 25.2216C77.8419 25.5966 78.304 26.1231 78.6335 26.8011C78.9669 27.4792 79.1335 28.2727 79.1335 29.1818C79.1335 30.0833 78.9669 30.8712 78.6335 31.5455C78.304 32.2197 77.8419 32.7443 77.2472 33.1193C76.6563 33.4943 75.9669 33.6818 75.179 33.6818ZM75.179 32.4773C75.7775 32.4773 76.2699 32.3239 76.6562 32.017C77.0426 31.7102 77.3286 31.3068 77.5142 30.8068C77.6998 30.3068 77.7926 29.7652 77.7926 29.1818C77.7926 28.5985 77.6998 28.0549 77.5142 27.5511C77.3286 27.0473 77.0426 26.6402 76.6562 26.3295C76.2699 26.0189 75.7775 25.8636 75.179 25.8636C74.5805 25.8636 74.0881 26.0189 73.7017 26.3295C73.3153 26.6402 73.0294 27.0473 72.8438 27.5511C72.6581 28.0549 72.5653 28.5985 72.5653 29.1818C72.5653 29.7652 72.6581 30.3068 72.8438 30.8068C73.0294 31.3068 73.3153 31.7102 73.7017 32.017C74.0881 32.3239 74.5805 32.4773 75.179 32.4773ZM86.544 36.7727C86.3168 36.7727 86.1141 36.7538 85.9361 36.7159C85.758 36.6818 85.6349 36.6477 85.5668 36.6136L85.9077 35.4318C86.2334 35.5152 86.5213 35.5455 86.7713 35.5227C87.0213 35.5 87.2429 35.3883 87.4361 35.1875C87.633 34.9905 87.813 34.6705 87.9759 34.2273L88.2259 33.5455L84.9986 24.7727H86.4531L88.8622 31.7273H88.9531L91.3622 24.7727H92.8168L89.1122 34.7727C88.9455 35.2235 88.7391 35.5966 88.4929 35.892C88.2467 36.1913 87.9607 36.4129 87.6349 36.5568C87.313 36.7008 86.9493 36.7727 86.544 36.7727ZM97.8196 33.6818C97.0317 33.6818 96.3404 33.4943 95.7457 33.1193C95.1548 32.7443 94.6927 32.2197 94.3594 31.5455C94.0298 30.8712 93.8651 30.0833 93.8651 29.1818C93.8651 28.2727 94.0298 27.4792 94.3594 26.8011C94.6927 26.1231 95.1548 25.5966 95.7457 25.2216C96.3404 24.8466 97.0317 24.6591 97.8196 24.6591C98.6075 24.6591 99.2969 24.8466 99.8878 25.2216C100.482 25.5966 100.945 26.1231 101.274 26.8011C101.607 27.4792 101.774 28.2727 101.774 29.1818C101.774 30.0833 101.607 30.8712 101.274 31.5455C100.945 32.2197 100.482 32.7443 99.8878 33.1193C99.2969 33.4943 98.6075 33.6818 97.8196 33.6818ZM97.8196 32.4773C98.4181 32.4773 98.9105 32.3239 99.2969 32.017C99.6832 31.7102 99.9692 31.3068 100.155 30.8068C100.34 30.3068 100.433 29.7652 100.433 29.1818C100.433 28.5985 100.34 28.0549 100.155 27.5511C99.9692 27.0473 99.6832 26.6402 99.2969 26.3295C98.9105 26.0189 98.4181 25.8636 97.8196 25.8636C97.2211 25.8636 96.7287 26.0189 96.3423 26.3295C95.956 26.6402 95.67 27.0473 95.4844 27.5511C95.2988 28.0549 95.206 28.5985 95.206 29.1818C95.206 29.7652 95.2988 30.3068 95.4844 30.8068C95.67 31.3068 95.956 31.7102 96.3423 32.017C96.7287 32.3239 97.2211 32.4773 97.8196 32.4773ZM109.321 29.9318V24.7727H110.662V33.5H109.321V32.0227H109.23C109.026 32.4659 108.707 32.8428 108.276 33.1534C107.844 33.4602 107.298 33.6136 106.639 33.6136C106.094 33.6136 105.609 33.4943 105.185 33.2557C104.76 33.0133 104.427 32.6496 104.185 32.1648C103.942 31.6761 103.821 31.0606 103.821 30.3182V24.7727H105.162V30.2273C105.162 30.8636 105.34 31.3712 105.696 31.75C106.056 32.1288 106.514 32.3182 107.071 32.3182C107.404 32.3182 107.743 32.233 108.088 32.0625C108.437 31.892 108.728 31.6307 108.963 31.2784C109.202 30.9261 109.321 30.4773 109.321 29.9318ZM119.595 33.5L116.936 24.7727H118.345L120.232 31.4545H120.322L122.186 24.7727H123.618L125.459 31.4318H125.55L127.436 24.7727H128.845L126.186 33.5H124.868L122.959 26.7955H122.822L120.913 33.5H119.595ZM133.186 33.7045C132.633 33.7045 132.131 33.6004 131.68 33.392C131.23 33.1799 130.872 32.875 130.607 32.4773C130.341 32.0758 130.209 31.5909 130.209 31.0227C130.209 30.5227 130.307 30.1174 130.504 29.8068C130.701 29.4924 130.964 29.2462 131.294 29.0682C131.624 28.8902 131.987 28.7576 132.385 28.6705C132.786 28.5795 133.19 28.5076 133.595 28.4545C134.125 28.3864 134.555 28.3352 134.885 28.3011C135.218 28.2633 135.461 28.2008 135.612 28.1136C135.768 28.0265 135.845 27.875 135.845 27.6591V27.6136C135.845 27.053 135.692 26.6174 135.385 26.3068C135.082 25.9962 134.622 25.8409 134.004 25.8409C133.364 25.8409 132.862 25.9811 132.499 26.2614C132.135 26.5417 131.879 26.8409 131.732 27.1591L130.459 26.7045C130.686 26.1742 130.989 25.7614 131.368 25.4659C131.75 25.1667 132.167 24.9583 132.618 24.8409C133.072 24.7197 133.519 24.6591 133.959 24.6591C134.239 24.6591 134.561 24.6932 134.925 24.7614C135.292 24.8258 135.646 24.9602 135.987 25.1648C136.332 25.3693 136.618 25.678 136.845 26.0909C137.072 26.5038 137.186 27.0568 137.186 27.75V33.5H135.845V32.3182H135.777C135.686 32.5076 135.535 32.7102 135.322 32.9261C135.11 33.142 134.828 33.3258 134.476 33.4773C134.124 33.6288 133.694 33.7045 133.186 33.7045ZM133.391 32.5C133.921 32.5 134.368 32.3958 134.732 32.1875C135.099 31.9792 135.375 31.7102 135.561 31.3807C135.75 31.0511 135.845 30.7045 135.845 30.3409V29.1136C135.788 29.1818 135.663 29.2443 135.47 29.3011C135.281 29.3542 135.061 29.4015 134.811 29.4432C134.565 29.4811 134.324 29.5152 134.089 29.5455C133.858 29.572 133.671 29.5947 133.527 29.6136C133.179 29.6591 132.853 29.733 132.55 29.8352C132.25 29.9337 132.008 30.0833 131.822 30.2841C131.641 30.4811 131.55 30.75 131.55 31.0909C131.55 31.5568 131.722 31.9091 132.067 32.1477C132.415 32.3826 132.857 32.5 133.391 32.5ZM140.974 28.25V33.5H139.634V24.7727H140.929V26.1364H141.043C141.247 25.6932 141.558 25.3371 141.974 25.0682C142.391 24.7955 142.929 24.6591 143.588 24.6591C144.179 24.6591 144.696 24.7803 145.139 25.0227C145.582 25.2614 145.927 25.625 146.173 26.1136C146.42 26.5985 146.543 27.2121 146.543 27.9545V33.5H145.202V28.0455C145.202 27.3598 145.024 26.8258 144.668 26.4432C144.312 26.0568 143.823 25.8636 143.202 25.8636C142.774 25.8636 142.391 25.9564 142.054 26.142C141.721 26.3277 141.457 26.5985 141.264 26.9545C141.071 27.3106 140.974 27.7424 140.974 28.25ZM152.788 24.7727V25.9091H148.266V24.7727H152.788ZM149.584 22.6818H150.925V31C150.925 31.3788 150.98 31.6629 151.089 31.8523C151.203 32.0379 151.347 32.1629 151.521 32.2273C151.699 32.2879 151.887 32.3182 152.084 32.3182C152.232 32.3182 152.353 32.3106 152.447 32.2955C152.542 32.2765 152.618 32.2614 152.675 32.25L152.947 33.4545C152.857 33.4886 152.73 33.5227 152.567 33.5568C152.404 33.5947 152.197 33.6136 151.947 33.6136C151.569 33.6136 151.197 33.5322 150.834 33.3693C150.474 33.2064 150.175 32.9583 149.936 32.625C149.701 32.2917 149.584 31.8712 149.584 31.3636V22.6818ZM163.101 24.7727V25.9091H158.578V24.7727H163.101ZM159.896 22.6818H161.237V31C161.237 31.3788 161.292 31.6629 161.402 31.8523C161.516 32.0379 161.66 32.1629 161.834 32.2273C162.012 32.2879 162.199 32.3182 162.396 32.3182C162.544 32.3182 162.665 32.3106 162.76 32.2955C162.855 32.2765 162.93 32.2614 162.987 32.25L163.26 33.4545C163.169 33.4886 163.042 33.5227 162.879 33.5568C162.716 33.5947 162.51 33.6136 162.26 33.6136C161.881 33.6136 161.51 33.5322 161.146 33.3693C160.786 33.2064 160.487 32.9583 160.249 32.625C160.014 32.2917 159.896 31.8712 159.896 31.3636V22.6818ZM168.57 33.6818C167.782 33.6818 167.09 33.4943 166.496 33.1193C165.905 32.7443 165.443 32.2197 165.109 31.5455C164.78 30.8712 164.615 30.0833 164.615 29.1818C164.615 28.2727 164.78 27.4792 165.109 26.8011C165.443 26.1231 165.905 25.5966 166.496 25.2216C167.09 24.8466 167.782 24.6591 168.57 24.6591C169.357 24.6591 170.047 24.8466 170.638 25.2216C171.232 25.5966 171.695 26.1231 172.024 26.8011C172.357 27.4792 172.524 28.2727 172.524 29.1818C172.524 30.0833 172.357 30.8712 172.024 31.5455C171.695 32.2197 171.232 32.7443 170.638 33.1193C170.047 33.4943 169.357 33.6818 168.57 33.6818ZM168.57 32.4773C169.168 32.4773 169.661 32.3239 170.047 32.017C170.433 31.7102 170.719 31.3068 170.905 30.8068C171.09 30.3068 171.183 29.7652 171.183 29.1818C171.183 28.5985 171.09 28.0549 170.905 27.5511C170.719 27.0473 170.433 26.6402 170.047 26.3295C169.661 26.0189 169.168 25.8636 168.57 25.8636C167.971 25.8636 167.479 26.0189 167.092 26.3295C166.706 26.6402 166.42 27.0473 166.234 27.5511C166.049 28.0549 165.956 28.5985 165.956 29.1818C165.956 29.7652 166.049 30.3068 166.234 30.8068C166.42 31.3068 166.706 31.7102 167.092 32.017C167.479 32.3239 167.971 32.4773 168.57 32.4773ZM182.366 33.6818C181.639 33.6818 180.997 33.4981 180.44 33.1307C179.884 32.7595 179.448 32.2367 179.134 31.5625C178.819 30.8845 178.662 30.0833 178.662 29.1591C178.662 28.2424 178.819 27.447 179.134 26.7727C179.448 26.0985 179.885 25.5777 180.446 25.2102C181.007 24.8428 181.654 24.6591 182.389 24.6591C182.957 24.6591 183.406 24.7538 183.736 24.9432C184.069 25.1288 184.323 25.3409 184.497 25.5795C184.675 25.8144 184.813 26.0076 184.912 26.1591H185.026V21.8636H186.366V33.5H185.071V32.1591H184.912C184.813 32.3182 184.673 32.5189 184.491 32.7614C184.31 33 184.05 33.214 183.713 33.4034C183.376 33.589 182.927 33.6818 182.366 33.6818ZM182.548 32.4773C183.086 32.4773 183.541 32.3371 183.912 32.0568C184.283 31.7727 184.565 31.3807 184.759 30.8807C184.952 30.3769 185.048 29.7955 185.048 29.1364C185.048 28.4848 184.954 27.9148 184.764 27.4261C184.575 26.9337 184.295 26.5511 183.923 26.2784C183.552 26.0019 183.094 25.8636 182.548 25.8636C181.98 25.8636 181.507 26.0095 181.128 26.3011C180.753 26.589 180.471 26.9811 180.281 27.4773C180.096 27.9697 180.003 28.5227 180.003 29.1364C180.003 29.7576 180.098 30.322 180.287 30.8295C180.48 31.3333 180.764 31.7348 181.139 32.0341C181.518 32.3295 181.988 32.4773 182.548 32.4773ZM192.554 33.6818C191.766 33.6818 191.075 33.4943 190.48 33.1193C189.889 32.7443 189.427 32.2197 189.094 31.5455C188.764 30.8712 188.599 30.0833 188.599 29.1818C188.599 28.2727 188.764 27.4792 189.094 26.8011C189.427 26.1231 189.889 25.5966 190.48 25.2216C191.075 24.8466 191.766 24.6591 192.554 24.6591C193.342 24.6591 194.031 24.8466 194.622 25.2216C195.217 25.5966 195.679 26.1231 196.009 26.8011C196.342 27.4792 196.509 28.2727 196.509 29.1818C196.509 30.0833 196.342 30.8712 196.009 31.5455C195.679 32.2197 195.217 32.7443 194.622 33.1193C194.031 33.4943 193.342 33.6818 192.554 33.6818ZM192.554 32.4773C193.152 32.4773 193.645 32.3239 194.031 32.017C194.418 31.7102 194.704 31.3068 194.889 30.8068C195.075 30.3068 195.168 29.7652 195.168 29.1818C195.168 28.5985 195.075 28.0549 194.889 27.5511C194.704 27.0473 194.418 26.6402 194.031 26.3295C193.645 26.0189 193.152 25.8636 192.554 25.8636C191.955 25.8636 191.463 26.0189 191.077 26.3295C190.69 26.6402 190.404 27.0473 190.219 27.5511C190.033 28.0549 189.94 28.5985 189.94 29.1818C189.94 29.7652 190.033 30.3068 190.219 30.8068C190.404 31.3068 190.69 31.7102 191.077 32.017C191.463 32.3239 191.955 32.4773 192.554 32.4773ZM200.305 30.2273V30.1591C200.313 29.4356 200.389 28.8598 200.533 28.4318C200.677 28.0038 200.881 27.6572 201.146 27.392C201.411 27.1269 201.73 26.8826 202.101 26.6591C202.324 26.5227 202.525 26.3617 202.703 26.1761C202.881 25.9867 203.021 25.7689 203.124 25.5227C203.23 25.2765 203.283 25.0038 203.283 24.7045C203.283 24.3333 203.196 24.0114 203.021 23.7386C202.847 23.4659 202.614 23.2557 202.322 23.108C202.031 22.9602 201.707 22.8864 201.351 22.8864C201.04 22.8864 200.741 22.9508 200.453 23.0795C200.165 23.2083 199.925 23.411 199.732 23.6875C199.538 23.964 199.427 24.3258 199.396 24.7727H197.964C197.995 24.1288 198.161 23.5777 198.464 23.1193C198.771 22.661 199.175 22.3106 199.675 22.0682C200.179 21.8258 200.737 21.7045 201.351 21.7045C202.018 21.7045 202.597 21.8371 203.089 22.1023C203.586 22.3674 203.968 22.7311 204.237 23.1932C204.51 23.6553 204.646 24.1818 204.646 24.7727C204.646 25.1894 204.582 25.5663 204.453 25.9034C204.328 26.2405 204.146 26.5417 203.908 26.8068C203.673 27.072 203.389 27.3068 203.055 27.5114C202.722 27.7197 202.455 27.9394 202.254 28.1705C202.054 28.3977 201.908 28.6686 201.817 28.983C201.726 29.2973 201.677 29.6894 201.669 30.1591V30.2273H200.305ZM201.033 33.5909C200.752 33.5909 200.512 33.4905 200.311 33.2898C200.11 33.089 200.01 32.8485 200.01 32.5682C200.01 32.2879 200.11 32.0473 200.311 31.8466C200.512 31.6458 200.752 31.5455 201.033 31.5455C201.313 31.5455 201.554 31.6458 201.754 31.8466C201.955 32.0473 202.055 32.2879 202.055 32.5682C202.055 32.7538 202.008 32.9242 201.913 33.0795C201.822 33.2348 201.699 33.3598 201.544 33.4545C201.393 33.5455 201.222 33.5909 201.033 33.5909Z" fill="#B3B3B3"/>
<g clip-path="url(#clip0_0_1)">
<path d="M28.6667 88H40.3333C41.2538 88 42 87.2538 42 86.3333V74.6667C42 73.7462 41.2538 73 40.3333 73H28.6667C27.7462 73 27 73.7462 27 74.6667V86.3333C27 87.2538 27.7462 88 28.6667 88ZM28.6667 88L37.8333 78.8333L42 83M32.8333 77.5833C32.8333 78.2737 32.2737 78.8333 31.5833 78.8333C30.893 78.8333 30.3333 78.2737 30.3333 77.5833C30.3333 76.893 30.893 76.3333 31.5833 76.3333C32.2737 76.3333 32.8333 76.893 32.8333 77.5833Z" stroke="#1E1E1E" stroke-width="2" stroke-linecap="round" stroke-linejoin="round"/>
<mask id="path-6-inside-1_0_1" fill="white">
<path d="M348.5 80.5C348.5 70.5589 356.559 62.5 366.5 62.5V62.5C376.441 62.5 384.5 70.5589 384.5 80.5V80.5C384.5 90.4411 376.441 98.5 366.5 98.5V98.5C356.559 98.5 348.5 90.4411 348.5 80.5V80.5Z"/>
</mask>
<path d="M348.5 80.5C348.5 70.5589 356.559 62.5 366.5 62.5V62.5C376.441 62.5 384.5 70.5589 384.5 80.5V80.5C384.5 90.4411 376.441 98.5 366.5 98.5V98.5C356.559 98.5 348.5 90.4411 348.5 80.5V80.5Z" fill="#D9D9D9"/>
<path d="M348.5 80.5M384.5 80.5M384.5 80.5M348.5 80.5M366.5 62.5M384.5 80.5M366.5 98.5M348.5 80.5M366.5 98.5V97.5C357.111 97.5 349.5 89.8888 349.5 80.5H348.5H347.5C347.5 90.9934 356.007 99.5 366.5 99.5V98.5ZM384.5 80.5H383.5C383.5 89.8888 375.889 97.5 366.5 97.5V98.5V99.5C376.993 99.5 385.5 90.9934 385.5 80.5H384.5ZM366.5 62.5V63.5C375.889 63.5 383.5 71.1112 383.5 80.5H384.5H385.5C385.5 70.0066 376.993 61.5 366.5 61.5V62.5ZM366.5 62.5V61.5C356.007 61.5 347.5 70.0066 347.5 80.5H348.5H349.5C349.5 71.1112 357.111 63.5 366.5 63.5V62.5Z" fill="#B3B3B3" mask="url(#path-6-inside-1_0_1)"/>
<path d="M366.5 86.3333V74.6667M366.5 74.6667L360.667 80.5M366.5 74.6667L372.333 80.5" stroke="#B3B3B3" stroke-width="2" stroke-linecap="round" stroke-linejoin="round"/>
</g>
<defs>
<clipPath id="clip0_0_1">
<rect width="368" height="36" fill="white" transform="translate(16.5 62.5)"/>
</clipPath>
</defs>
</svg>
